<svg width="150" height="25" viewBox="0 0 150 25" fill="none" xmlns="http://www.w3.org/2000/svg">
<g clip-path="url(#clip0_297_305)">
<path d="M12.1454 8.66076e-08C9.74292 1.03734e-07 7.39439 0.712437 5.39682 2.04721C3.39925 3.38199 1.84236 5.27916 0.923033 7.49879C0.00370966 9.71842 -0.236754 12.1608 0.232053 14.5171C0.700859 16.8734 1.85788 19.0378 3.55679 20.7365C5.2557 22.4352 7.4202 23.592 9.77655 24.0605C12.1329 24.529 14.5753 24.2883 16.7948 23.3687C19.0143 22.4491 20.9113 20.892 22.2458 18.8942C23.5804 16.8965 24.2925 14.5479 24.2922 12.1454C24.2922 10.5503 23.978 8.97086 23.3676 7.49722C22.7571 6.02358 21.8624 4.68462 20.7344 3.55679C19.6065 2.42897 18.2674 1.53438 16.7937 0.924097C15.32 0.313819 13.7405 -0.000190393 12.1454 8.66076e-08V8.66076e-08ZM17.7163 17.519C17.6644 17.6039 17.5963 17.6777 17.5159 17.7363C17.4355 17.7949 17.3443 17.837 17.2476 17.8603C17.1509 17.8836 17.0505 17.8876 16.9523 17.8721C16.854 17.8566 16.7597 17.8219 16.6749 17.7699C13.8235 16.0295 10.2324 15.6335 6.00453 16.5995C5.81237 16.6351 5.61388 16.5951 5.45058 16.4877C5.28727 16.3804 5.17181 16.214 5.12834 16.0235C5.08488 15.8329 5.11678 15.633 5.21737 15.4654C5.31796 15.2979 5.47944 15.1757 5.66805 15.1245C10.2947 14.0657 14.2629 14.5211 17.4654 16.4777C17.6365 16.5827 17.759 16.7513 17.806 16.9465C17.8531 17.1417 17.8208 17.3476 17.7163 17.519V17.519ZM19.2029 14.2136C19.1378 14.32 19.0524 14.4125 18.9515 14.4858C18.8506 14.559 18.7363 14.6117 18.615 14.6407C18.4937 14.6696 18.3679 14.6744 18.2448 14.6546C18.1217 14.6348 18.0037 14.5909 17.8976 14.5255C14.6357 12.5167 9.65801 11.9351 5.80148 13.1084C5.56107 13.1815 5.30146 13.1561 5.07979 13.0378C4.85811 12.9195 4.69251 12.7179 4.61943 12.4775C4.54634 12.2371 4.57175 11.9775 4.69007 11.7558C4.80839 11.5342 5.00992 11.3686 5.25034 11.2955C9.65801 9.95679 15.1419 10.6051 18.8911 12.9083C18.9974 12.9734 19.0899 13.0588 19.1632 13.1597C19.2365 13.2606 19.2891 13.3749 19.3181 13.4962C19.3471 13.6175 19.3518 13.7433 19.332 13.8664C19.3123 13.9895 19.2684 14.1075 19.2029 14.2136V14.2136ZM19.3305 10.7704C15.4145 8.44986 8.95748 8.2323 5.21988 9.36649C4.93138 9.454 4.61994 9.42332 4.35406 9.2812C4.08819 9.13909 3.88965 8.89717 3.80214 8.60867C3.71463 8.32018 3.74531 8.00873 3.88743 7.74286C4.02955 7.47698 4.27147 7.27845 4.55996 7.19094C8.85016 5.8856 15.9831 6.13942 20.4908 8.81535C20.6191 8.89154 20.7311 8.99224 20.8205 9.11172C20.9098 9.2312 20.9748 9.3671 21.0116 9.51168C21.0485 9.65626 21.0565 9.80668 21.0352 9.95435C21.0139 10.102 20.9637 10.244 20.8875 10.3723C20.8113 10.5006 20.7106 10.6126 20.5911 10.702C20.4717 10.7913 20.3358 10.8563 20.1912 10.8931C19.8992 10.9675 19.5896 10.9229 19.3305 10.769V10.7704Z" fill="#191414"/>
<path d="M33.0452 11.2128C30.948 10.7124 30.5796 10.3614 30.5796 9.6174C30.5796 8.91977 31.2366 8.4571 32.2113 8.4571C33.1569 8.4571 34.0967 8.81389 35.0786 9.54633C35.0933 9.5571 35.11 9.56483 35.1276 9.56906C35.1453 9.5733 35.1637 9.57395 35.1816 9.57099C35.1998 9.56858 35.2173 9.56244 35.2331 9.55296C35.2488 9.54348 35.2624 9.53085 35.273 9.51587L36.297 8.0655C36.3157 8.03634 36.3233 8.00144 36.3185 7.96712C36.3138 7.9328 36.2968 7.90133 36.2709 7.8784C35.1357 6.95139 33.7085 6.45701 32.2432 6.48315C29.9777 6.48315 28.3968 7.84215 28.3968 9.78564C28.3968 11.8713 29.7616 12.6095 32.1184 13.1795C34.1258 13.6407 34.4637 14.028 34.4637 14.7213C34.4637 15.487 33.7791 15.9642 32.6768 15.9642C31.4527 15.9642 30.4549 15.5523 29.341 14.5849C29.3123 14.5619 29.2762 14.55 29.2395 14.5516C29.2029 14.5555 29.1692 14.5731 29.1452 14.6009L27.9921 15.9758C27.9691 16.0029 27.9576 16.038 27.96 16.0735C27.9624 16.109 27.9787 16.1421 28.0052 16.1658C29.2706 17.3132 30.9194 17.9459 32.6275 17.9396C35.0685 17.9396 36.645 16.6053 36.645 14.5429C36.6421 12.7981 35.5993 11.8336 33.0452 11.2128Z" fill="#191414"/>
<path d="M42.1623 9.14459C41.1049 9.14459 40.2362 9.56085 39.5211 10.4151V9.45352C39.5212 9.41652 39.5071 9.38089 39.4818 9.35392C39.4564 9.32696 39.4217 9.3107 39.3848 9.30848H37.5066C37.4681 9.30848 37.4312 9.32376 37.404 9.35096C37.3768 9.37816 37.3615 9.41506 37.3615 9.45352V20.1282C37.3634 20.1654 37.3795 20.2005 37.4065 20.2261C37.4335 20.2518 37.4693 20.2661 37.5066 20.266H39.3848C39.4028 20.266 39.4207 20.2625 39.4373 20.2555C39.454 20.2486 39.469 20.2384 39.4817 20.2256C39.4944 20.2128 39.5044 20.1976 39.5112 20.1809C39.5179 20.1642 39.5213 20.1463 39.5211 20.1282V16.759C39.8449 17.142 40.2499 17.448 40.7068 17.6547C41.1637 17.8615 41.6609 17.9638 42.1623 17.9541C44.1275 17.9541 46.116 16.4414 46.116 13.5494C46.116 10.6573 44.1275 9.14459 42.1623 9.14459ZM43.9332 13.5494C43.9332 15.0229 43.0267 16.0498 41.7272 16.0498C40.4276 16.0498 39.4747 14.9751 39.4747 13.5494C39.4747 12.1237 40.4436 11.0504 41.7272 11.0504C43.0107 11.0504 43.9332 12.1004 43.9332 13.5494V13.5494Z" fill="#191414"/>
<path d="M51.2155 9.14459C48.6846 9.14459 46.7019 11.0939 46.7019 13.5813C46.7019 16.0469 48.6715 17.9715 51.185 17.9715C53.7246 17.9715 55.7131 16.028 55.7131 13.5494C55.7131 11.0707 53.7377 9.14459 51.2155 9.14459ZM51.2155 16.0658C49.8695 16.0658 48.8543 14.9838 48.8543 13.5494C48.8543 12.115 49.8347 11.0649 51.185 11.0649C52.5353 11.0649 53.5607 12.1469 53.5607 13.5813C53.5607 15.0157 52.5745 16.0658 51.2155 16.0658Z" fill="#191414"/>
<path d="M61.1171 9.31572H59.0504V7.20398C59.0516 7.18536 59.0489 7.16669 59.0426 7.14913C59.0363 7.13157 59.0264 7.1155 59.0137 7.1019C59.0009 7.08831 58.9854 7.07748 58.9683 7.07009C58.9512 7.0627 58.9327 7.05891 58.914 7.05894H57.0358C56.9986 7.06081 56.9636 7.07691 56.9379 7.10391C56.9123 7.13091 56.898 7.16674 56.898 7.20398V9.31572H55.9959C55.959 9.31794 55.9243 9.3342 55.8989 9.36116C55.8736 9.38812 55.8595 9.42375 55.8596 9.46076V11.0678C55.8595 11.1048 55.8736 11.1404 55.8989 11.1674C55.9243 11.1943 55.959 11.2106 55.9959 11.2128H56.898V15.3884C56.898 17.0752 57.7392 17.9309 59.3956 17.9309C60.0103 17.9456 60.6178 17.7953 61.1549 17.4958C61.1753 17.483 61.1923 17.4653 61.2042 17.4443C61.2161 17.4232 61.2226 17.3996 61.223 17.3754V15.8308C61.223 15.8074 61.217 15.7844 61.2056 15.764C61.1942 15.7435 61.1778 15.7263 61.1579 15.714C61.138 15.7017 61.1153 15.6946 61.0919 15.6935C61.0686 15.6923 61.0453 15.6972 61.0243 15.7075C60.6838 15.8838 60.3055 15.9749 59.922 15.9729C59.3201 15.9729 59.0518 15.7003 59.0518 15.0867V11.2056H61.1186C61.1558 11.2037 61.1908 11.1876 61.2165 11.1606C61.2422 11.1336 61.2564 11.0978 61.2564 11.0605V9.45351C61.2546 9.41729 61.2393 9.38306 61.2135 9.35756C61.1878 9.33205 61.1534 9.31713 61.1171 9.31572V9.31572Z" fill="#191414"/>
<path d="M68.3124 9.32443V9.06482C68.3124 8.30192 68.6025 7.96109 69.261 7.96109C69.6225 7.96557 69.9806 8.03179 70.3197 8.15689C70.3404 8.16311 70.3622 8.16465 70.3835 8.16139C70.4048 8.15812 70.4252 8.15015 70.443 8.13803C70.4602 8.12482 70.4742 8.10793 70.484 8.08861C70.4938 8.06928 70.4991 8.04801 70.4996 8.02635V6.444C70.4986 6.41477 70.4888 6.38652 70.4714 6.36296C70.4541 6.33941 70.43 6.32165 70.4024 6.31202C69.8981 6.15871 69.3732 6.08434 68.8462 6.09156C67.1057 6.09156 66.1949 7.06766 66.1949 8.91543V9.31283H65.2928C65.2568 9.31459 65.2228 9.32967 65.1973 9.35514C65.1718 9.38061 65.1567 9.41464 65.155 9.45062V11.0678C65.1549 11.105 65.1692 11.1409 65.1949 11.1679C65.2205 11.1949 65.2556 11.211 65.2928 11.2128H66.1949V17.6539C66.1949 17.6924 66.2102 17.7293 66.2374 17.7565C66.2646 17.7837 66.3015 17.7989 66.3399 17.7989H68.2167C68.2539 17.7971 68.289 17.781 68.3146 17.754C68.3403 17.727 68.3545 17.6912 68.3545 17.6539V11.2056H70.108L72.7941 17.6452C72.4895 18.3211 72.1893 18.456 71.7788 18.456C71.4147 18.4483 71.0584 18.3485 70.7433 18.1659C70.7091 18.1488 70.6697 18.1452 70.633 18.1557C70.5973 18.1688 70.5681 18.1954 70.5518 18.2297L69.9078 19.6221C69.8928 19.6536 69.8905 19.6896 69.9013 19.7228C69.9121 19.756 69.9352 19.7838 69.9659 19.8005C70.5771 20.1466 71.2694 20.3238 71.9717 20.3139C73.3583 20.3139 74.1241 19.667 74.7999 17.9295L78.0575 9.51733C78.066 9.49656 78.0691 9.47397 78.0666 9.45166C78.0641 9.42935 78.0559 9.40804 78.043 9.3897C78.0304 9.3713 78.0135 9.35626 77.9938 9.34589C77.9741 9.33552 77.9521 9.33015 77.9298 9.33024H75.9791C75.9506 9.33118 75.9231 9.34049 75.8999 9.35699C75.8766 9.3735 75.8588 9.39648 75.8486 9.42306L73.8456 15.1419L71.6483 9.41291C71.6385 9.38692 71.6211 9.36453 71.5983 9.34872C71.5755 9.33291 71.5484 9.32444 71.5207 9.32443H68.3124Z" fill="#191414"/>
<path d="M64.1426 9.31573H62.2658C62.1897 9.31573 62.1281 9.37742 62.1281 9.45352V17.6452C62.1281 17.7213 62.1897 17.783 62.2658 17.783H64.1426C64.2187 17.783 64.2804 17.7213 64.2804 17.6452V9.45352C64.2804 9.37742 64.2187 9.31573 64.1426 9.31573Z" fill="#191414"/>
<path d="M63.2144 5.58537C62.9478 5.58509 62.6872 5.66387 62.4654 5.81175C62.2436 5.95962 62.0707 6.16996 61.9685 6.41614C61.8663 6.66232 61.8394 6.93328 61.8913 7.19474C61.9431 7.45621 62.0713 7.69642 62.2597 7.88501C62.448 8.07359 62.6881 8.20206 62.9495 8.25416C63.2109 8.30627 63.4819 8.27967 63.7282 8.17774C63.9745 8.0758 64.185 7.9031 64.3331 7.68149C64.4813 7.45988 64.5603 7.19932 64.5603 6.93277C64.5599 6.57579 64.4181 6.23351 64.1658 5.98095C63.9135 5.72839 63.5714 5.58614 63.2144 5.58537V5.58537Z" fill="#191414"/>
<path d="M79.6645 11.9496C79.4026 11.949 79.1467 11.8709 78.9291 11.725C78.7115 11.5791 78.5421 11.372 78.4421 11.1299C78.3421 10.8878 78.3161 10.6215 78.3674 10.3646C78.4186 10.1078 78.5448 9.87181 78.73 9.6866C78.9152 9.50138 79.1512 9.37518 79.4081 9.32394C79.6649 9.2727 79.9312 9.2987 80.1734 9.39868C80.4155 9.49865 80.6225 9.66811 80.7684 9.88567C80.9143 10.1032 80.9925 10.3591 80.993 10.6211C80.993 10.9734 80.8531 11.3113 80.6039 11.5605C80.3548 11.8096 80.0168 11.9496 79.6645 11.9496V11.9496ZM79.6645 9.43176C79.4278 9.42974 79.1959 9.49815 78.9981 9.62827C78.8004 9.7584 78.6458 9.94437 78.5541 10.1625C78.4623 10.3807 78.4375 10.6213 78.4827 10.8536C78.528 11.0859 78.6413 11.2996 78.8082 11.4673C78.9752 11.6351 79.1883 11.7495 79.4204 11.7959C79.6525 11.8423 79.8931 11.8186 80.1118 11.7279C80.3304 11.6372 80.5171 11.4835 80.6482 11.2864C80.7793 11.0894 80.8488 10.8578 80.848 10.6211C80.8497 10.4652 80.8205 10.3105 80.7622 10.1659C80.7038 10.0214 80.6174 9.8898 80.5079 9.77883C80.3984 9.66785 80.268 9.57966 80.1242 9.51934C79.9805 9.45903 79.8262 9.42778 79.6703 9.42741L79.6645 9.43176ZM79.9546 10.7574L80.3288 11.281H80.014L79.6775 10.8009H79.3875V11.281H79.1249V9.89297H79.7428C80.0648 9.89297 80.2765 10.0583 80.2765 10.3353C80.2814 10.4311 80.2528 10.5256 80.1956 10.6026C80.1385 10.6796 80.0563 10.7343 79.9633 10.7574H79.9546ZM79.7327 10.1308H79.3875V10.5659H79.7327C79.9038 10.5659 80.0068 10.4818 80.0068 10.3455C80.0068 10.2092 79.9154 10.1308 79.7414 10.1308H79.7327Z" fill="#191414"/>
</g>
<line x1="85.5" y1="1.5" x2="85.5" y2="21.5" stroke="#191414" stroke-linecap="round"/>
<path d="M92.0664 16V5.97852H93.4268L98.6904 13.8467V5.97852H99.9619V16H98.6016L93.3379 8.125V16H92.0664ZM101.582 12.3701C101.582 11.0257 101.956 10.0299 102.703 9.38281C103.327 8.84505 104.089 8.57617 104.986 8.57617C105.984 8.57617 106.8 8.9043 107.434 9.56055C108.067 10.2122 108.384 11.1146 108.384 12.2676C108.384 13.2018 108.243 13.9378 107.96 14.4756C107.682 15.0088 107.274 15.4235 106.736 15.7197C106.203 16.016 105.62 16.1641 104.986 16.1641C103.97 16.1641 103.147 15.8382 102.519 15.1865C101.894 14.5348 101.582 13.596 101.582 12.3701ZM102.847 12.3701C102.847 13.2998 103.049 13.9971 103.455 14.4619C103.861 14.9222 104.371 15.1523 104.986 15.1523C105.597 15.1523 106.105 14.9199 106.511 14.4551C106.916 13.9902 107.119 13.2816 107.119 12.3291C107.119 11.4313 106.914 10.7523 106.504 10.292C106.098 9.82715 105.592 9.59473 104.986 9.59473C104.371 9.59473 103.861 9.82487 103.455 10.2852C103.049 10.7454 102.847 11.4404 102.847 12.3701ZM109.341 13.833L110.558 13.6416C110.626 14.1292 110.815 14.5029 111.125 14.7627C111.439 15.0225 111.877 15.1523 112.438 15.1523C113.003 15.1523 113.422 15.0384 113.695 14.8105C113.969 14.5781 114.105 14.307 114.105 13.9971C114.105 13.7191 113.985 13.5003 113.743 13.3408C113.575 13.2314 113.155 13.0924 112.485 12.9238C111.583 12.696 110.956 12.5 110.605 12.3359C110.259 12.1673 109.995 11.9372 109.812 11.6455C109.635 11.3493 109.546 11.0234 109.546 10.668C109.546 10.3444 109.619 10.0459 109.765 9.77246C109.915 9.49447 110.118 9.26432 110.373 9.08203C110.564 8.94076 110.824 8.82227 111.152 8.72656C111.485 8.6263 111.84 8.57617 112.219 8.57617C112.788 8.57617 113.287 8.6582 113.716 8.82227C114.149 8.98633 114.468 9.20964 114.673 9.49219C114.878 9.77018 115.019 10.1439 115.097 10.6133L113.894 10.7773C113.839 10.4036 113.679 10.112 113.415 9.90234C113.155 9.69271 112.786 9.58789 112.308 9.58789C111.743 9.58789 111.339 9.68132 111.098 9.86816C110.856 10.055 110.735 10.2738 110.735 10.5244C110.735 10.6839 110.785 10.8275 110.886 10.9551C110.986 11.0872 111.143 11.1966 111.357 11.2832C111.48 11.3288 111.843 11.4336 112.444 11.5977C113.315 11.8301 113.921 12.0215 114.263 12.1719C114.609 12.3177 114.88 12.5319 115.076 12.8145C115.272 13.097 115.37 13.4479 115.37 13.8672C115.37 14.2773 115.249 14.6647 115.008 15.0293C114.771 15.3893 114.427 15.6696 113.976 15.8701C113.524 16.0661 113.014 16.1641 112.444 16.1641C111.501 16.1641 110.781 15.9681 110.284 15.5762C109.792 15.1842 109.478 14.6032 109.341 13.833ZM119.52 14.8994L119.697 15.9863C119.351 16.0592 119.041 16.0957 118.768 16.0957C118.321 16.0957 117.975 16.0251 117.729 15.8838C117.482 15.7425 117.309 15.5579 117.209 15.3301C117.109 15.0977 117.059 14.6123 117.059 13.874V9.69727H116.156V8.74023H117.059V6.94238L118.282 6.2041V8.74023H119.52V9.69727H118.282V13.9424C118.282 14.2933 118.303 14.5189 118.344 14.6191C118.389 14.7194 118.46 14.7992 118.556 14.8584C118.656 14.9176 118.797 14.9473 118.979 14.9473C119.116 14.9473 119.296 14.9313 119.52 14.8994ZM125.467 15.1045C125.011 15.4919 124.571 15.7653 124.147 15.9248C123.728 16.0843 123.277 16.1641 122.794 16.1641C121.996 16.1641 121.383 15.9704 120.955 15.583C120.527 15.1911 120.312 14.6921 120.312 14.0859C120.312 13.7305 120.392 13.4069 120.552 13.1152C120.716 12.819 120.928 12.582 121.188 12.4043C121.452 12.2266 121.748 12.0921 122.076 12.001C122.318 11.9372 122.682 11.8757 123.17 11.8164C124.163 11.6979 124.895 11.5566 125.364 11.3926C125.369 11.224 125.371 11.1169 125.371 11.0713C125.371 10.57 125.255 10.2168 125.022 10.0117C124.708 9.73372 124.241 9.59473 123.621 9.59473C123.042 9.59473 122.614 9.69727 122.336 9.90234C122.062 10.1029 121.86 10.4606 121.728 10.9756L120.524 10.8115C120.634 10.2965 120.814 9.88184 121.064 9.56738C121.315 9.24837 121.677 9.00456 122.151 8.83594C122.625 8.66276 123.174 8.57617 123.799 8.57617C124.419 8.57617 124.922 8.64909 125.31 8.79492C125.697 8.94076 125.982 9.12533 126.164 9.34863C126.346 9.56738 126.474 9.84538 126.547 10.1826C126.588 10.3923 126.608 10.7705 126.608 11.3174V12.958C126.608 14.1019 126.633 14.8265 126.684 15.1318C126.738 15.4326 126.843 15.722 126.998 16H125.713C125.585 15.7448 125.503 15.4463 125.467 15.1045ZM125.364 12.3564C124.918 12.5387 124.248 12.6937 123.354 12.8213C122.849 12.8942 122.491 12.9762 122.281 13.0674C122.072 13.1585 121.91 13.293 121.796 13.4707C121.682 13.6439 121.625 13.8376 121.625 14.0518C121.625 14.3799 121.748 14.6533 121.994 14.8721C122.245 15.0908 122.609 15.2002 123.088 15.2002C123.562 15.2002 123.983 15.0977 124.353 14.8926C124.722 14.6829 124.993 14.3981 125.166 14.0381C125.298 13.7601 125.364 13.3499 125.364 12.8076V12.3564ZM128.495 16V5.97852H129.726V16H128.495ZM131.414 16.6016L132.61 16.7793C132.66 17.1484 132.799 17.4173 133.027 17.5859C133.333 17.8138 133.75 17.9277 134.278 17.9277C134.848 17.9277 135.288 17.8138 135.598 17.5859C135.908 17.3581 136.117 17.0391 136.227 16.6289C136.29 16.3783 136.32 15.8519 136.315 15.0498C135.778 15.6833 135.108 16 134.306 16C133.308 16 132.535 15.64 131.988 14.9199C131.441 14.1999 131.168 13.3363 131.168 12.3291C131.168 11.6364 131.293 10.9984 131.544 10.415C131.795 9.82715 132.157 9.3737 132.631 9.05469C133.109 8.73568 133.67 8.57617 134.312 8.57617C135.169 8.57617 135.876 8.92253 136.432 9.61523V8.74023H137.566V15.0156C137.566 16.1458 137.45 16.9456 137.218 17.415C136.99 17.889 136.625 18.2627 136.124 18.5361C135.627 18.8096 135.014 18.9463 134.285 18.9463C133.419 18.9463 132.72 18.7503 132.187 18.3584C131.653 17.971 131.396 17.3854 131.414 16.6016ZM132.433 12.2402C132.433 13.1927 132.622 13.8877 133 14.3252C133.378 14.7627 133.852 14.9814 134.422 14.9814C134.987 14.9814 135.461 14.765 135.844 14.332C136.227 13.8945 136.418 13.2109 136.418 12.2812C136.418 11.3926 136.22 10.7227 135.823 10.2715C135.431 9.82031 134.957 9.59473 134.401 9.59473C133.854 9.59473 133.39 9.81803 133.007 10.2646C132.624 10.7067 132.433 11.3652 132.433 12.2402ZM139.439 7.39355V5.97852H140.67V7.39355H139.439ZM139.439 16V8.74023H140.67V16H139.439ZM147.287 15.1045C146.831 15.4919 146.392 15.7653 145.968 15.9248C145.549 16.0843 145.097 16.1641 144.614 16.1641C143.817 16.1641 143.204 15.9704 142.775 15.583C142.347 15.1911 142.133 14.6921 142.133 14.0859C142.133 13.7305 142.213 13.4069 142.372 13.1152C142.536 12.819 142.748 12.582 143.008 12.4043C143.272 12.2266 143.568 12.0921 143.896 12.001C144.138 11.9372 144.503 11.8757 144.99 11.8164C145.984 11.6979 146.715 11.5566 147.185 11.3926C147.189 11.224 147.191 11.1169 147.191 11.0713C147.191 10.57 147.075 10.2168 146.843 10.0117C146.528 9.73372 146.061 9.59473 145.441 9.59473C144.863 9.59473 144.434 9.69727 144.156 9.90234C143.883 10.1029 143.68 10.4606 143.548 10.9756L142.345 10.8115C142.454 10.2965 142.634 9.88184 142.885 9.56738C143.135 9.24837 143.498 9.00456 143.972 8.83594C144.446 8.66276 144.995 8.57617 145.619 8.57617C146.239 8.57617 146.743 8.64909 147.13 8.79492C147.517 8.94076 147.802 9.12533 147.984 9.34863C148.167 9.56738 148.294 9.84538 148.367 10.1826C148.408 10.3923 148.429 10.7705 148.429 11.3174V12.958C148.429 14.1019 148.454 14.8265 148.504 15.1318C148.559 15.4326 148.663 15.722 148.818 16H147.533C147.406 15.7448 147.324 15.4463 147.287 15.1045ZM147.185 12.3564C146.738 12.5387 146.068 12.6937 145.175 12.8213C144.669 12.8942 144.311 12.9762 144.102 13.0674C143.892 13.1585 143.73 13.293 143.616 13.4707C143.502 13.6439 143.445 13.8376 143.445 14.0518C143.445 14.3799 143.568 14.6533 143.814 14.8721C144.065 15.0908 144.43 15.2002 144.908 15.2002C145.382 15.2002 145.804 15.0977 146.173 14.8926C146.542 14.6829 146.813 14.3981 146.986 14.0381C147.118 13.7601 147.185 13.3499 147.185 12.8076V12.3564Z" fill="#191414"/>
<defs>
<clipPath id="clip0_297_305">
<rect width="80.993" height="24.2923" fill="white"/>
</clipPath>
</defs>
</svg>
